<?xml version="1.0" encoding="utf-8"?>
<!-- Generator: Adobe Illustrator 23.0.0, SVG Export Plug-In . SVG Version: 6.00 Build 0)  -->
<svg version="1.1" id="Layer_1" xmlns="http://www.w3.org/2000/svg" xmlns:xlink="http://www.w3.org/1999/xlink" x="0px" y="0px"
	 viewBox="0 0 256 256" style="enable-background:new 0 0 256 256;" xml:space="preserve">
<style type="text/css">
	.st0{fill:#BF0E00;}
	.st1{fill:#FFFFFF;}
</style>
<g>
	<path class="st0" d="M127.9,1.4C57.9,1.4,1.4,57.9,1.4,127.9s56.5,126.5,126.4,126.5s126.5-56.5,126.5-126.5S197.8,1.4,127.9,1.4z"
		/>
	<path class="st1" d="M190.5,200.6l-16.9,8.4c-7.9,3.9-17.1,4.2-25,0.6C102,188,68,153.7,46.1,107.1c-3.7-7.9-3.4-17.1,0.6-25
		l8.4-16.9c3.9-7.9,14.9-9,20.2-1.7l18.8,25.3c2.8,3.9,3.1,9,0.8,13.2l-4.2,7.3c-2,3.7-2.2,7.9-0.3,11.5c10.4,19.4,25,34,44.4,44.4
		c3.7,2,7.9,1.7,11.5-0.3l7.3-4.2c4.2-2.2,9.3-2,13.2,0.8l25.3,18.8C199.2,185.5,198.4,196.7,190.5,200.6z"/>
	<path class="st1" d="M112.7,81.8c0-4.2,3.4-7.6,7.6-7.6c33.7,0,61.3,27.5,61.3,61.3c0,4.2-3.4,7.6-7.6,7.6s-7.6-3.4-7.6-7.6
		c0-25.3-20.5-45.8-45.8-45.8C116.1,89.4,112.7,86,112.7,81.8z"/>
	<path class="st1" d="M204.6,143c-4.2,0-7.6-3.4-7.6-7.6c0-42.1-34.3-76.4-76.4-76.4c-4.2,0-7.6-3.4-7.6-7.6s3.4-7.6,7.6-7.6
		c50.3-0.3,91.6,41,91.6,91.6C212.2,139.7,208.8,143,204.6,143z"/>
</g>
</svg>
